Coordinates
version=1
nRows=11
nColumns=40
inDegrees=yes

Units are S.I. units (second, meters, Newtons, ...)
If the header above contains a line with 'inDegrees', this indicates whether rotational values are in degrees (yes) or radians (no).

endheader
time	pelvis_tilt	pelvis_list	pelvis_rotation	pelvis_tx	pelvis_ty	pelvis_tz	hip_flexion_r	hip_adduction_r	hip_rotation_r	knee_angle_r	knee_angle_r_beta	ankle_angle_r	subtalar_angle_r	mtp_angle_r	hip_flexion_l	hip_adduction_l	hip_rotation_l	knee_angle_l	knee_angle_l_beta	ankle_angle_l	subtalar_angle_l	mtp_angle_l	lumbar_extension	lumbar_bending	lumbar_rotation	arm_flex_r	arm_add_r	arm_rot_r	elbow_flex_r	pro_sup_r	wrist_flex_r	wrist_dev_r	arm_flex_l	arm_add_l	arm_rot_l	elbow_flex_l	pro_sup_l	wrist_flex_l	wrist_dev_l
      5.57500000	    -40.46242080	      8.04571404	      3.50369556	     -0.44419875	      0.74794171	     -0.91225845	     98.28420625	    -17.17956998	      7.94192953	     80.93946287	      1.41266012	     28.45249414	      0.00000000	      0.00000000	     93.35292900	     -3.19257462	     -3.30478516	     78.89177129	      1.37692116	     29.83737077	      0.00000000	      0.00000000	    -28.74305581	     -2.85343683	    -10.27053678	     -6.22377646	    -62.70771838	     60.03920002	    110.35373696	     87.91092821	      0.00000000	      0.00000000	     -5.57764611	    -60.74628919	     61.66774299	    100.98229608	     88.14325198	      0.00000000	      0.00000000
      5.58000000	    -40.11408567	      8.03667510	      3.47240488	     -0.44303714	      0.75057976	     -0.91229596	     97.60108408	    -17.19745744	      7.89118554	     80.58846095	      1.40653398	     28.41694272	      0.00000000	      0.00000000	     92.71207461	     -3.05145426	     -3.19742573	     78.53047564	      1.37061536	     29.78465505	      0.00000000	      0.00000000	    -28.88966468	     -2.81857613	    -10.24795136	     -5.89181534	    -62.66028032	     60.24939475	    110.16291597	     87.91199339	      0.00000000	      0.00000000	     -5.29627176	    -60.69869534	     61.76421498	    100.89508669	     88.11622058	      0.00000000	      0.00000000
      5.58500000	    -40.29941704	      7.44683237	      4.03364528	     -0.44372977	      0.75184305	     -0.91340026	     97.48699238	    -17.73629903	      7.35086187	     80.38461333	      1.40297617	     28.47231082	      0.00000000	      0.00000000	     92.96159752	     -2.35154238	     -2.45771601	     78.24682095	      1.36566465	     29.54357302	      0.00000000	      0.00000000	    -28.28538594	     -1.97161256	    -10.46703802	     -5.15558347	    -63.02693789	     61.11106508	    110.33956547	     87.91211966	      0.00000000	      0.00000000	     -4.88705055	    -60.66818051	     62.34487244	    100.96776623	     88.09717368	      0.00000000	      0.00000000
      5.59000000	    -39.46833102	      7.72968192	      2.88527825	     -0.44140393	      0.75521250	     -0.91042347	     96.24124115	    -16.48669095	      7.44722304	     79.97894675	      1.39589595	     28.51020272	      0.00000000	      0.00000000	     91.69542027	     -3.53316851	     -2.74115799	     78.13814490	      1.36376790	     29.78569891	      0.00000000	      0.00000000	    -28.94896543	     -2.83874623	     -9.70272804	     -4.55164644	    -62.61329373	     61.58492919	    109.94357657	     87.90399690	      0.00000000	      0.00000000	     -4.63509007	    -60.81659938	     62.42152730	    100.83221461	     88.08999716	      0.00000000	      0.00000000
      5.59500000	    -39.44846138	      7.53608435	      3.27392701	     -0.44093741	      0.75725171	     -0.91133916	     95.92618185	    -16.90745593	      7.27824970	     79.67739580	      1.39063290	     28.53155765	      0.00000000	      0.00000000	     91.47215270	     -2.97581515	     -2.43327162	     77.71034233	      1.35630134	     29.72901507	      0.00000000	      0.00000000	    -28.53165196	     -2.44674999	    -10.09317667	     -2.92191025	    -62.78003098	     63.39336880	    109.85475808	     87.87742570	      0.00000000	      0.00000000	     -4.45463866	    -60.73578345	     62.77256675	    100.75378953	     88.07783334	      0.00000000	      0.00000000
      5.60000000	    -38.78990139	      7.37370703	      3.31900478	     -0.43904808	      0.76053182	     -0.91121430	     94.82599304	    -17.05085249	      7.00007926	     79.41300373	      1.38601838	     28.60560173	      0.00000000	      0.00000000	     90.50052596	     -2.78589502	     -2.21165765	     77.38812563	      1.35067759	     29.75987649	      0.00000000	      0.00000000	    -28.96780377	     -2.21645614	    -10.14923386	     -2.68345699	    -62.71833389	     63.48647048	    109.69687523	     87.86394778	      0.00000000	      0.00000000	     -4.46804336	    -60.64920345	     62.59616264	    100.59925987	     88.07141726	      0.00000000	      0.00000000
      5.60500000	    -39.25700175	      7.17448616	      3.11227705	     -0.43977099	      0.76150750	     -0.91065002	     95.02695104	    -16.59421279	      6.91797919	     78.94201156	      1.37779802	     28.49591771	      0.00000000	      0.00000000	     90.87792388	     -2.99154305	     -1.89183710	     77.07582397	      1.34522690	     29.63591665	      0.00000000	      0.00000000	    -28.04554336	     -2.20924549	     -9.82511460	     -2.60916369	    -62.83923910	     63.65463964	    109.80206448	     87.86417056	      0.00000000	      0.00000000	     -4.60703238	    -60.70878627	     62.50135729	    100.74897466	     88.07540390	      0.00000000	      0.00000000
      5.61000000	    -39.68478010	      6.96406534	      2.82630596	     -0.44011951	      0.76259844	     -0.90981139	     95.15771202	    -16.05263931	      6.81891179	     78.50351773	      1.37014486	     28.30704269	      0.00000000	      0.00000000	     91.21678289	     -3.31490826	     -1.61054231	     76.81032731	      1.34059311	     29.40633405	      0.00000000	      0.00000000	    -27.13431205	     -2.23422991	     -9.45591047	     -2.51785454	    -62.86905546	     63.85848512	    109.81950278	     87.86405092	      0.00000000	      0.00000000	     -4.76380178	    -60.74692243	     62.35569644	    100.80806247	     88.07711166	      0.00000000	      0.00000000
      5.61500000	    -38.15035974	      6.91042856	      2.32745857	     -0.43634553	      0.76799319	     -0.90843361	     92.97001912	    -15.74522094	      6.48511525	     78.12767251	      1.36358512	     28.55578307	      0.00000000	      0.00000000	     89.12150944	     -3.67699437	     -1.57384438	     76.49100868	      1.33501995	     29.70404156	      0.00000000	      0.00000000	    -28.49519088	     -2.27294114	    -10.32527977	      2.54275393	    -62.60475798	     68.68010218	    109.33512388	     87.82129838	      0.00000000	      0.00000000	     -8.10083498	    -60.39629668	     58.58404441	    100.56761492	     88.07802692	      0.00000000	      0.00000000
      5.62000000	    -38.83577454	      6.40778074	      3.30310668	     -0.43748273	      0.76889441	     -0.91088067	     93.40433758	    -16.69166442	      6.08259838	     77.81039173	      1.35804753	     28.38485475	      0.00000000	      0.00000000	     89.82671488	     -2.52675193	     -0.85497348	     75.97823186	      1.32607031	     29.26418458	      0.00000000	      0.00000000	    -27.24730714	     -1.31161275	    -10.85349260	      2.45535905	    -63.03244028	     68.73399954	    109.59874240	     87.82036417	      0.00000000	      0.00000000	     -8.10678964	    -60.24547472	     58.70936149	    100.66257810	     88.07995554	      0.00000000	      0.00000000
      5.62500000	    -37.50888533	      6.46916811	      2.66563998	     -0.43356739	      0.77387146	     -0.90910838	     91.44128999	    -16.17265768	      5.87166968	     77.39820798	      1.35085356	     28.58270130	      0.00000000	      0.00000000	     87.91638623	     -3.08212980	     -0.93496587	     75.69804029	      1.32118004	     29.56800410	      0.00000000	      0.00000000	    -28.31518399	     -1.60677302	    -10.40213389	      2.73498164	    -62.64426124	     68.89361189	    109.17077273	     87.80919997	      0.00000000	      0.00000000	     -7.83685593	    -60.11692815	     58.72875234	    100.29523242	     88.07729150	      0.00000000	      0.00000000
